{
  "accessors": [
    {
      "bufferView": 2,
      "componentType": 5126,
      "count": 221,
      "max": [
        6.582320213317871,
        1.5377880334854126,
        6.547080993652344
      ],
      "min": [
        -6.582320213317871,
        0.37821900844573975,
        -6.547080993652344
      ],
      "type": "VEC3"
    },
    {
      "bufferView": 2,
      "byteOffset": 2652,
      "componentType": 5126,
      "count": 221,
      "max": [
        0.24219709634780884,
        0.9999949932098389,
        0.2507539391517639
      ],
      "min": [
        -0.2562021315097809,
        0.964207112789154,
        -0.2648850381374359
      ],
      "type": "VEC3"
    },
    {
      "bufferView": 3,
      "componentType": 5126,
      "count": 221,
      "max": [
        -0.11736422777175903,
        0.2613300085067749,
        0.9922420382499695,
        1.0
      ],
      "min": [
        -0.1373409926891327,
        -0.25009477138519287,
        0.9569271206855774,
        1.0
      ],
      "type": "VEC4"
    },
    {
      "bufferView": 1,
      "componentType": 5126,
      "count": 221,
      "max": [
        0.997452974319458,
        1.0
      ],
      "min": [
        0.0,
        0.0
      ],
      "type": "VEC2"
    },
    {
      "bufferView": 0,
      "componentType": 5125,
      "count": 1152,
      "type": "SCALAR"
    },
    {
      "bufferView": 2,
      "byteOffset": 5304,
      "componentType": 5126,
      "count": 38,
      "max": [
        0.0,
        9.999999974752427e-07,
        0.22866900265216827
      ],
      "min": [
        -5.22855806350708,
        -0.05135200172662735,
        -0.22867000102996826
      ],
      "type": "VEC3"
    },
    {
      "bufferView": 2,
      "byteOffset": 5760,
      "componentType": 5126,
      "count": 38,
      "max": [
        1.0,
        1.0,
        0.9999635815620422
      ],
      "min": [
        -1.0,
        -5.000003056920832e-06,
        -0.9999635815620422
      ],
      "type": "VEC3"
    },
    {
      "bufferView": 3,
      "byteOffset": 3536,
      "componentType": 5126,
      "count": 38,
      "max": [
        9.203654190059751e-05,
        1.0,
        1.0,
        1.0
      ],
      "min": [
        -0.00014049785386305302,
        4.999999418942025e-06,
        -4.9998207032331266e-06,
        1.0
      ],
      "type": "VEC4"
    },
    {
      "bufferView": 1,
      "byteOffset": 1768,
      "componentType": 5126,
      "count": 38,
      "max": [
        0.2078550010919571,
        0.6200910210609436
      ],
      "min": [
        0.16413600742816925,
        0.06366600096225739
      ],
      "type": "VEC2"
    },
    {
      "bufferView": 0,
      "byteOffset": 4608,
      "componentType": 5125,
      "count": 84,
      "type": "SCALAR"
    },
    {
      "bufferView": 2,
      "byteOffset": 6216,
      "componentType": 5126,
      "count": 85,
      "max": [
        0.014720000326633453,
        -0.0,
        0.12494699656963348
      ],
      "min": [
        -5.178859233856201,
        -0.020521000027656555,
        -0.13018099963665009
      ],
      "type": "VEC3"
    },
    {
      "bufferView": 2,
      "byteOffset": 7236,
      "componentType": 5126,
      "count": 85,
      "max": [
        1.0,
        1.0,
        1.0
      ],
      "min": [
        -1.0,
        -0.6382288336753845,
        -1.0
      ],
      "type": "VEC3"
    },
    {
      "bufferView": 3,
      "byteOffset": 4144,
      "componentType": 5126,
      "count": 85,
      "max": [
        0.0032596816308796406,
        1.0,
        1.0,
        1.0
      ],
      "min": [
        -0.6382282376289368,
        -1.0,
        -1.0,
        1.0
      ],
      "type": "VEC4"
    },
    {
      "bufferView": 1,
      "byteOffset": 2072,
      "componentType": 5126,
      "count": 85,
      "max": [
        0.19030199944972992,
        0.6188160181045532
      ],
      "min": [
        0.15882299840450287,
        0.06179799884557724
      ],
      "type": "VEC2"
    },
    {
      "bufferView": 0,
      "byteOffset": 4944,
      "componentType": 5125,
      "count": 162,
      "type": "SCALAR"
    },
    {
      "bufferView": 2,
      "byteOffset": 8256,
      "componentType": 5126,
      "count": 2755,
      "max": [
        7.70798397064209,
        2.003235101699829,
        8.58023452758789
      ],
      "min": [
        -7.708724021911621,
        -4.399429798126221,
        -8.565543174743652
      ],
      "type": "VEC3"
    },
    {
      "bufferView": 2,
      "byteOffset": 41316,
      "componentType": 5126,
      "count": 2755,
      "max": [
        0.9999991059303284,
        1.0,
        1.0
      ],
      "min": [
        -0.9999892115592957,
        -1.0,
        -1.0
      ],
      "type": "VEC3"
    },
    {
      "bufferView": 3,
      "byteOffset": 5504,
      "componentType": 5126,
      "count": 2755,
      "max": [
        0.9999978542327881,
        1.0,
        0.999997615814209,
        1.0
      ],
      "min": [
        -0.9991726875305176,
        -1.0,
        -1.0,
        1.0
      ],
      "type": "VEC4"
    },
    {
      "bufferView": 1,
      "byteOffset": 2752,
      "componentType": 5126,
      "count": 2755,
      "max": [
        0.6442469954490662,
        0.9964140057563782
      ],
      "min": [
        0.0035860000643879175,
        0.0035860000643879175
      ],
      "type": "VEC2"
    },
    {
      "bufferView": 0,
      "byteOffset": 5592,
      "componentType": 5125,
      "count": 11634,
      "type": "SCALAR"
    }
  ],
  "asset": {
    "extras": {
      "author": "Sousinho (https://sketchfab.com/sousinho)",
      "license": "CC-BY-4.0 (http://creativecommons.org/licenses/by/4.0/)",
      "source": "https://sketchfab.com/3d-models/retro-antique-desk-clock-0e09a2d7fdf34f4487e2646b435b3b78",
      "title": "Retro antique desk clock"
    },
    "generator": "Sketchfab-12.97.0",
    "version": "2.0"
  },
  "bufferViews": [
    {
      "buffer": 0,
      "byteLength": 52128,
      "name": "floatBufferViews",
      "target": 34963
    },
    {
      "buffer": 0,
      "byteLength": 24792,
      "byteOffset": 52128,
      "byteStride": 8,
      "name": "floatBufferViews",
      "target": 34962
    },
    {
      "buffer": 0,
      "byteLength": 74376,
      "byteOffset": 76920,
      "byteStride": 12,
      "name": "floatBufferViews",
      "target": 34962
    },
    {
      "buffer": 0,
      "byteLength": 49584,
      "byteOffset": 151296,
      "byteStride": 16,
      "name": "floatBufferViews",
      "target": 34962
    }
  ],
  "buffers": [
    {
      "byteLength": 200880,
      "uri": "scene.bin"
    }
  ],
  "images": [
    {
      "uri": "textures/table_clock_1001_baseColor.jpeg"
    },
    {
      "uri": "textures/table_clock_1001_metallicRoughness.png"
    },
    {
      "uri": "textures/table_clock_1001_normal.png"
    },
    {
      "uri": "textures/table_clock_hands_1001_baseColor.jpeg"
    },
    {
      "uri": "textures/table_clock_hands_1001_metallicRoughness.png"
    },
    {
      "uri": "textures/table_clock_hands_1001_normal.png"
    },
    {
      "uri": "textures/glass_1001_baseColor.png"
    },
    {
      "uri": "textures/glass_1001_metallicRoughness.png"
    },
    {
      "uri": "textures/glass_1001_normal.png"
    }
  ],
  "materials": [
    {
      "doubleSided": true,
      "name": "table_clock_1001",
      "normalTexture": {
        "index": 2
      },
      "occlusionTexture": {
        "index": 1
      },
      "pbrMetallicRoughness": {
        "baseColorTexture": {
          "index": 0
        },
        "metallicRoughnessTexture": {
          "index": 1
        }
      }
    },
    {
      "doubleSided": true,
      "name": "table_clock_hands_1001",
      "normalTexture": {
        "index": 5
      },
      "occlusionTexture": {
        "index": 4
      },
      "pbrMetallicRoughness": {
        "baseColorTexture": {
          "index": 3
        },
        "metallicRoughnessTexture": {
          "index": 4
        }
      }
    },
    {
      "alphaMode": "BLEND",
      "doubleSided": true,
      "name": "glass_1001",
      "normalTexture": {
        "index": 8
      },
      "occlusionTexture": {
        "index": 7
      },
      "pbrMetallicRoughness": {
        "baseColorTexture": {
          "index": 6
        },
        "metallicRoughnessTexture": {
          "index": 7
        }
      }
    }
  ],
  "meshes": [
    {
      "name": "defaultMaterial",
      "primitives": [
        {
          "attributes": {
            "NORMAL": 1,
            "POSITION": 0,
            "TANGENT": 2,
            "TEXCOORD_0": 3
          },
          "indices": 4,
          "material": 2,
          "mode": 4
        }
      ]
    },
    {
      "name": "defaultMaterial",
      "primitives": [
        {
          "attributes": {
            "NORMAL": 6,
            "POSITION": 5,
            "TANGENT": 7,
            "TEXCOORD_0": 8
          },
          "indices": 9,
          "material": 1,
          "mode": 4
        }
      ]
    },
    {
      "name": "defaultMaterial",
      "primitives": [
        {
          "attributes": {
            "NORMAL": 11,
            "POSITION": 10,
            "TANGENT": 12,
            "TEXCOORD_0": 13
          },
          "indices": 14,
          "material": 1,
          "mode": 4
        }
      ]
    },
    {
      "name": "defaultMaterial",
      "primitives": [
        {
          "attributes": {
            "NORMAL": 16,
            "POSITION": 15,
            "TANGENT": 17,
            "TEXCOORD_0": 18
          },
          "indices": 19,
          "material": 0,
          "mode": 4
        }
      ]
    }
  ],
  "nodes": [
    {
      "children": [
        1
      ],
      "matrix": [
        1.0,
        0.0,
        0.0,
        0.0,
        0.0,
        2.220446049250313e-16,
        -1.0,
        0.0,
        0.0,
        1.0,
        2.220446049250313e-16,
        0.0,
        0.0,
        0.0,
        0.0,
        1.0
      ],
      "name": "Sketchfab_model"
    },
    {
      "children": [
        2,
        4,
        6,
        8
      ],
      "matrix": [
        1.0,
        0.0,
        0.0,
        0.0,
        0.0,
        -4.371139006309477e-08,
        0.999999999999999,
        0.0,
        0.0,
        -0.999999999999999,
        -4.371139006309477e-08,
        0.0,
        0.0,
        0.0,
        0.0,
        1.0
      ],
      "name": "Collada visual scene group"
    },
    {
      "children": [
        3
      ],
      "matrix": [
        0.997998,
        -0.063246,
        0.0,
        0.0,
        0.0,
        0.0,
        1.0,
        0.0,
        -0.063246,
        -0.997998,
        0.0,
        0.0,
        -0.071251,
        7.440855,
        0.901556,
        1.0
      ],
      "name": "glass"
    },
    {
      "mesh": 0,
      "name": "defaultMaterial"
    },
    {
      "children": [
        5
      ],
      "matrix": [
        0.0,
        1.0,
        0.0,
        0.0,
        0.0,
        0.0,
        1.0,
        0.0,
        1.0,
        0.0,
        0.0,
        0.0,
        0.143055,
        7.453219,
        1.482847,
        1.0
      ],
      "name": "Plane.001"
    },
    {
      "mesh": 1,
      "name": "defaultMaterial"
    },
    {
      "children": [
        7
      ],
      "matrix": [
        1.0,
        0.0,
        0.0,
        0.0,
        0.0,
        0.0,
        1.0,
        0.0,
        0.0,
        -1.0,
        0.0,
        0.0,
        0.143055,
        7.453219,
        1.482847,
        1.0
      ],
      "name": "Plane"
    },
    {
      "mesh": 2,
      "name": "defaultMaterial"
    },
    {
      "children": [
        9
      ],
      "matrix": [
        0.997998,
        -0.063246,
        0.0,
        0.0,
        0.0,
        0.0,
        1.0,
        0.0,
        -0.063246,
        -0.997998,
        0.0,
        0.0,
        -0.068892,
        7.471117,
        0.151455,
        1.0
      ],
      "name": "Cylinder"
    },
    {
      "mesh": 3,
      "name": "defaultMaterial"
    }
  ],
  "samplers": [
    {
      "magFilter": 9729,
      "minFilter": 9987,
      "wrapS": 10497,
      "wrapT": 10497
    }
  ],
  "scene": 0,
  "scenes": [
    {
      "name": "Sketchfab_Scene",
      "nodes": [
        0
      ]
    }
  ],
  "textures": [
    {
      "sampler": 0,
      "source": 0
    },
    {
      "sampler": 0,
      "source": 1
    },
    {
      "sampler": 0,
      "source": 2
    },
    {
      "sampler": 0,
      "source": 3
    },
    {
      "sampler": 0,
      "source": 4
    },
    {
      "sampler": 0,
      "source": 5
    },
    {
      "sampler": 0,
      "source": 6
    },
    {
      "sampler": 0,
      "source": 7
    },
    {
      "sampler": 0,
      "source": 8
    }
  ]
}
